<?xml version="1.0" standalone="no"?>
<!DOCTYPE svg PUBLIC "-//W3C//DTD SVG 20010904//EN"
 "http://www.w3.org/TR/2001/REC-SVG-20010904/DTD/svg10.dtd">
<svg version="1.0" xmlns="http://www.w3.org/2000/svg"
 width="330.000000pt" height="330.000000pt" viewBox="0 0 330.000000 330.000000"
 preserveAspectRatio="xMidYMid meet">
<metadata>
Created by potrace 1.11, written by Peter Selinger 2001-2013
</metadata>
<g transform="translate(0.000000,330.000000) scale(0.100000,-0.100000)"
fill="#000000" stroke="none">
<path d="M1660 3275 c0 -17 -2 -17 -10 -5 -5 8 -10 10 -10 5 0 -6 -12 -10 -27
-10 -16 1 -36 -3 -45 -7 -12 -6 -18 -5 -18 2 0 6 -7 4 -16 -4 -8 -9 -20 -14
-25 -10 -6 3 -16 0 -24 -6 -12 -10 -15 -10 -15 -1 0 8 -6 6 -16 -4 -9 -9 -22
-14 -30 -11 -7 3 -15 0 -18 -7 -3 -8 -7 -9 -13 -2 -4 6 -25 11 -47 12 -21 2
-45 8 -53 14 -11 9 -12 9 -7 -4 4 -12 1 -14 -16 -10 -16 4 -18 8 -8 14 9 6 9
9 1 9 -6 0 -14 -4 -17 -9 -3 -4 -24 -7 -46 -5 -26 2 -38 -1 -34 -8 4 -6 -1 -6
-15 1 -12 7 -21 8 -21 2 0 -5 -8 -8 -17 -7 -10 2 -21 -2 -25 -8 -5 -8 -8 -7
-8 2 0 7 -5 10 -10 7 -6 -4 -7 -12 -4 -18 5 -8 3 -8 -7 1 -17 15 -33 16 -23 0
5 -7 2 -9 -8 -5 -9 3 -26 -2 -39 -10 -12 -9 -19 -12 -16 -6 4 6 0 13 -8 16
-10 4 -12 1 -8 -10 4 -10 2 -14 -4 -10 -5 4 -19 0 -29 -8 -10 -8 -23 -14 -29
-15 -5 0 -3 5 5 10 32 20 0 9 -54 -20 -31 -17 -56 -27 -56 -23 0 5 -5 0 -11
-9 -5 -10 -21 -18 -35 -18 -14 0 -23 -4 -20 -9 3 -5 -1 -12 -10 -15 -10 -4
-13 -2 -9 7 4 6 -1 3 -10 -8 -9 -11 -21 -19 -26 -18 -5 2 -9 -1 -9 -6 0 -5
-16 -19 -35 -31 -19 -12 -35 -28 -35 -36 0 -8 -3 -13 -7 -13 -20 3 -34 -2 -28
-11 3 -5 0 -10 -7 -10 -7 0 -33 -20 -58 -44 -58 -56 -118 -122 -101 -112 10 7
10 4 0 -12 -7 -12 -18 -20 -23 -19 -6 1 -10 -4 -9 -10 2 -7 -5 -13 -15 -13
-14 0 -15 -2 -2 -10 13 -8 12 -10 -3 -10 -10 0 -15 -4 -12 -10 3 -5 3 -10 -2
-10 -11 0 -34 -51 -27 -62 3 -5 0 -7 -8 -6 -8 2 -14 -8 -16 -26 -2 -16 -12
-38 -23 -49 -11 -12 -17 -27 -15 -33 2 -6 -3 -22 -11 -35 -13 -17 -13 -20 -2
-14 11 6 12 5 2 -6 -7 -7 -13 -26 -13 -41 0 -15 -5 -28 -10 -28 -6 0 -9 -3 -9
-7 5 -29 -3 -103 -9 -99 -5 3 -9 -1 -9 -9 0 -8 3 -12 7 -10 4 2 7 -2 7 -10 0
-8 -4 -12 -7 -10 -12 7 -10 -79 1 -95 9 -12 10 -10 6 8 -5 19 -3 21 9 11 11
-9 14 -8 14 5 0 9 5 16 10 16 6 0 10 7 10 15 0 7 8 19 17 24 10 6 14 11 10 11
-4 0 4 12 18 26 14 14 23 30 20 35 -4 5 -1 9 5 9 6 0 8 5 5 10 -3 6 -1 10 5
10 6 0 8 5 5 10 -3 6 -1 10 6 10 6 0 20 10 30 22 11 11 19 16 19 9 0 -8 5 -7
16 3 8 9 22 16 30 16 8 0 14 5 14 10 0 13 47 13 55 0 4 -6 1 -17 -5 -25 -7 -8
-10 -15 -7 -15 3 0 0 -15 -8 -34 -13 -32 -13 -34 5 -39 11 -3 20 0 20 6 0 6 3
7 7 4 3 -4 17 0 31 9 13 9 21 11 18 5 -4 -6 0 -11 9 -11 10 0 13 5 9 13 -5 7
-2 7 10 -2 13 -11 16 -11 14 -2 -2 9 9 14 30 15 17 0 32 -3 32 -7 0 -5 4 -6 9
-2 5 3 12 2 15 -3 2 -4 -10 -14 -27 -21 -18 -7 -40 -17 -51 -22 -13 -8 -16 -7
-11 1 4 7 -1 7 -14 -2 -12 -7 -21 -16 -21 -21 0 -4 -4 -6 -9 -3 -5 3 -21 -6
-35 -19 -15 -14 -32 -25 -37 -25 -6 0 -8 -4 -4 -9 3 -6 -4 -15 -15 -21 -11 -6
-18 -15 -15 -21 4 -5 -1 -16 -9 -25 -9 -9 -14 -19 -11 -24 3 -5 1 -10 -4 -12
-5 -1 -11 -10 -13 -18 -2 -8 -9 -21 -16 -28 -7 -8 -10 -18 -7 -23 4 -5 1 -9
-5 -9 -7 0 -10 -7 -6 -15 3 -8 1 -15 -4 -15 -6 0 -9 -3 -9 -7 3 -19 -2 -34 -9
-29 -4 2 -8 -4 -8 -15 0 -10 5 -19 10 -19 6 0 5 -5 -2 -12 -7 -7 -8 -17 -1
-30 6 -12 6 -18 0 -18 -6 0 -8 -7 -5 -15 4 -8 10 -12 16 -9 5 3 8 -2 6 -12 -2
-13 3 -19 14 -18 11 1 14 -4 10 -14 -5 -14 -4 -15 10 -2 9 8 14 18 12 22 -2 4
5 9 16 13 11 3 20 11 20 16 0 6 5 7 10 4 6 -3 10 -1 10 5 0 6 5 8 11 4 6 -3
15 0 20 7 8 11 12 10 25 -6 9 -12 11 -21 4 -23 -5 -2 -7 -9 -3 -15 4 -6 0 -8
-10 -4 -9 3 -19 2 -22 -4 -4 -5 -11 -7 -16 -3 -5 3 -8 2 -7 -3 4 -12 -34 -53
-49 -53 -7 0 -13 -7 -13 -16 0 -8 -4 -13 -8 -10 -5 3 -9 -1 -9 -9 0 -8 5 -11
11 -7 6 3 4 -5 -5 -18 -11 -19 -13 -35 -7 -65 5 -22 10 -49 13 -60 2 -11 4
-21 5 -22 2 -2 3 -6 4 -10 1 -5 7 -18 14 -29 6 -12 8 -24 5 -28 -4 -4 3 -13
15 -22 12 -8 22 -22 22 -30 0 -8 5 -14 11 -14 5 0 7 -4 4 -10 -6 -9 7 -14 27
-11 4 0 4 -7 1 -16 -4 -11 -3 -14 5 -9 7 4 15 1 18 -8 3 -9 10 -13 15 -10 5 3
6 10 3 16 -4 6 -2 8 4 4 12 -7 45 51 36 65 -3 5 -1 9 4 9 14 0 52 76 44 86 -4
4 -1 4 6 0 7 -4 12 -1 12 9 0 9 4 13 10 10 5 -3 10 2 10 12 0 11 6 25 13 32
10 11 9 12 -3 6 -13 -8 -13 -7 -1 8 9 11 10 17 2 17 -6 0 -10 3 -10 8 1 4 1
14 0 22 -1 13 -2 13 -12 0 -9 -12 -10 -11 -6 7 3 13 -1 24 -9 27 -8 3 -14 15
-14 26 0 12 -4 18 -10 15 -6 -4 -10 5 -10 19 0 14 -4 26 -10 26 -5 0 -10 6
-10 14 0 8 -6 16 -12 19 -10 4 -10 7 -1 17 10 11 14 10 19 -3 3 -9 12 -17 20
-17 8 0 14 -9 14 -21 0 -11 5 -17 10 -14 6 3 10 0 10 -7 0 -8 9 -20 20 -28 11
-8 20 -22 20 -32 0 -10 5 -18 11 -18 5 0 7 5 3 12 -5 7 -3 8 5 4 7 -5 10 -14
8 -20 -3 -7 1 -13 8 -13 8 0 13 5 12 11 -1 6 4 10 11 8 8 -1 11 2 7 8 -3 5 -3
10 2 10 4 0 16 14 25 31 10 17 22 27 28 24 5 -3 10 -1 10 5 0 12 12 28 52 70
15 15 24 30 21 33 -2 3 5 10 16 17 12 6 19 15 16 21 -4 5 1 9 9 9 15 0 21 12
17 33 -1 4 10 12 24 19 13 6 22 15 18 21 -3 5 -1 12 4 16 33 23 67 101 43 101
-5 0 -10 9 -10 19 0 11 -9 23 -20 26 -11 3 -20 11 -20 16 0 6 6 7 13 4 6 -3 2
2 -10 11 -13 9 -23 22 -23 29 0 7 -7 15 -15 19 -8 3 -12 12 -9 21 5 11 2 14
-12 8 -12 -4 -15 -3 -10 5 4 7 1 12 -8 12 -9 0 -16 6 -16 14 0 8 -7 16 -15 20
-8 3 -15 11 -15 18 0 8 3 9 8 3 4 -5 16 -12 27 -13 26 -5 46 -22 39 -33 -3 -5
-2 -9 3 -8 17 4 43 -14 43 -29 0 -8 3 -13 6 -9 8 7 34 -17 34 -32 0 -6 5 -11
10 -11 6 0 10 -5 10 -11 0 -11 11 -23 44 -49 12 -9 17 -10 12 -2 -4 6 -2 12 3
12 18 0 71 52 71 69 0 14 2 14 10 1 8 -12 10 -11 10 8 0 12 5 22 10 22 6 0 10
6 10 13 0 7 9 19 20 27 11 8 20 22 20 32 0 10 6 18 14 18 8 0 13 8 12 18 -4
22 14 51 29 46 6 -3 11 -22 10 -44 -1 -21 3 -38 8 -37 5 1 11 -9 12 -21 2 -25
23 -44 37 -36 5 3 5 10 2 16 -4 7 -2 8 4 4 6 -4 20 1 30 11 10 10 25 19 32 21
8 2 21 11 29 20 24 25 50 27 48 3 0 -11 -5 -17 -9 -15 -4 3 -8 0 -8 -6 0 -6
-4 -8 -10 -5 -5 3 -10 1 -10 -4 0 -6 -10 -11 -22 -11 -19 0 -20 -2 -8 -10 12
-8 10 -10 -8 -10 -13 0 -21 -3 -19 -7 5 -10 -29 -43 -36 -36 -3 2 -8 -9 -12
-26 -4 -19 -11 -29 -18 -25 -7 3 -4 -1 6 -9 9 -8 17 -26 17 -41 0 -14 5 -26
12 -26 6 0 8 -3 5 -7 -4 -3 0 -17 8 -30 9 -13 13 -28 10 -33 -3 -6 -1 -10 6
-10 7 0 10 -3 6 -6 -3 -3 3 -15 14 -27 10 -11 19 -30 19 -41 0 -10 3 -17 6
-13 4 3 13 0 21 -8 30 -31 80 -12 88 32 1 10 8 17 15 15 6 -1 9 2 5 8 -3 5 -1
10 5 10 6 0 9 4 5 10 -3 5 3 18 14 29 11 11 17 22 13 25 -3 3 -1 6 5 6 5 0 15
12 21 26 14 30 36 22 27 -9 -16 -54 -17 -63 -6 -47 9 13 11 13 11 -2 0 -10 -6
-18 -12 -18 -8 0 -9 -3 -3 -8 13 -9 20 -46 7 -38 -5 3 -9 -1 -9 -9 0 -8 5 -12
10 -8 5 3 5 -2 0 -13 -15 -32 -10 -109 7 -109 10 0 16 -12 18 -32 2 -19 -1
-33 -7 -33 -6 0 -11 -5 -11 -11 0 -5 5 -7 10 -4 6 3 10 -1 10 -9 0 -8 -4 -18
-10 -21 -5 -3 -10 -11 -10 -16 0 -6 4 -8 8 -5 5 3 9 -1 9 -9 0 -8 -4 -12 -9
-9 -7 5 -11 -29 -11 -111 0 -17 5 -29 12 -27 6 1 10 -4 9 -10 -2 -7 2 -12 8
-11 5 1 10 -9 10 -22 0 -13 -4 -21 -9 -18 -6 3 -8 -5 -5 -20 3 -14 1 -31 -3
-38 -4 -7 -3 -21 2 -30 5 -11 5 -20 0 -23 -5 -3 -7 -16 -3 -28 3 -13 1 -19 -5
-15 -17 11 -8 -45 10 -58 20 -14 24 -50 5 -39 -9 5 -9 2 1 -9 11 -14 11 -17 0
-17 -11 0 -11 -2 1 -10 11 -7 12 -10 2 -10 -8 0 -11 -7 -8 -17 3 -10 1 -25 -4
-33 -5 -9 -5 -19 2 -27 6 -7 6 -13 1 -13 -5 0 -8 -16 -8 -35 1 -19 -2 -32 -7
-29 -7 5 -14 -81 -10 -128 1 -10 -3 -18 -8 -18 -6 0 -10 -5 -10 -11 0 -5 3 -8
8 -6 4 3 8 -14 10 -38 1 -24 -2 -46 -8 -50 -5 -3 -10 -11 -10 -16 0 -6 4 -8 9
-5 5 4 4 -5 -2 -18 -7 -13 -16 -22 -22 -18 -5 3 -4 -2 4 -11 9 -12 10 -17 2
-17 -7 0 -9 -4 -6 -10 3 -5 2 -10 -3 -10 -5 0 -7 -12 -4 -26 3 -19 1 -25 -7
-20 -7 5 -11 -2 -11 -19 0 -14 -4 -24 -8 -21 -5 3 -8 -3 -8 -12 0 -54 -5 -73
-16 -66 -7 5 -8 3 -2 -7 9 -15 11 -20 13 -46 1 -16 3 -16 11 -3 14 21 8 -48
-7 -74 -6 -10 -8 -28 -5 -39 3 -13 1 -18 -6 -13 -6 3 -13 2 -17 -4 -3 -5 -1
-10 6 -10 9 0 9 -4 -1 -15 -6 -8 -8 -20 -4 -26 4 -7 3 -9 -3 -6 -7 4 -13 -8
-17 -28 -4 -19 -12 -35 -18 -35 -5 0 -8 -6 -5 -14 3 -8 1 -16 -5 -18 -13 -5
-20 -58 -7 -58 5 0 9 -6 9 -13 0 -7 16 -19 35 -26 19 -7 35 -17 35 -22 0 -5
11 -9 25 -9 14 0 25 -4 25 -10 0 -5 5 -10 11 -10 5 0 8 4 5 8 -3 5 1 9 9 9 8
0 12 -4 9 -9 -3 -4 4 -8 15 -8 10 0 22 -6 24 -12 4 -10 6 -10 6 0 1 6 6 12 12
12 5 0 7 -6 3 -12 -5 -8 0 -7 11 2 11 9 16 10 11 3 -4 -7 -3 -13 1 -13 5 0 15
6 22 13 8 6 11 7 8 1 -8 -14 54 -15 72 0 11 8 13 8 7 -2 -4 -6 -2 -12 3 -12 6
0 11 4 11 8 0 4 17 9 37 10 21 2 40 7 43 13 4 5 20 11 37 12 17 1 29 5 27 8
-4 7 26 23 39 21 4 -1 7 5 7 13 0 8 5 15 10 15 6 0 10 7 10 15 0 10 6 12 18 8
14 -5 15 -4 6 8 -6 8 -10 26 -9 41 1 15 -1 25 -6 23 -12 -8 -8 69 4 84 9 12 9
13 0 7 -7 -4 -13 -2 -13 3 0 6 5 11 10 11 7 0 7 6 0 19 -7 13 -7 22 0 26 5 3
10 11 10 16 0 6 -4 8 -8 5 -5 -3 -9 1 -9 9 0 8 4 12 7 10 4 -3 8 6 8 20 0 14
-4 22 -8 20 -5 -3 -6 4 -3 15 3 12 11 19 17 17 6 -2 19 0 30 5 15 8 16 12 5
19 -8 5 -9 9 -4 9 12 0 14 39 3 55 -4 6 -3 17 2 25 10 16 2 42 -11 34 -5 -3
-9 0 -9 5 0 6 3 11 8 11 9 0 8 52 -2 68 -4 7 -2 12 3 12 6 0 11 5 11 11 0 5
-4 8 -8 5 -5 -3 -8 29 -7 72 1 42 -1 82 -4 87 -3 6 -6 19 -6 30 0 11 -4 26 -8
32 -6 9 -3 11 10 6 16 -6 16 -4 -2 17 -12 14 -14 20 -5 15 13 -7 13 -6 2 7 -9
11 -10 18 -2 23 6 3 8 11 5 16 -16 24 -13 47 7 52 15 4 19 10 13 24 -4 10 -9
34 -10 53 -2 19 -4 37 -5 40 -1 3 -3 10 -5 15 -1 6 -3 12 -4 15 -1 3 -4 17 -6
33 -3 19 0 25 8 20 8 -4 7 -1 -1 9 -7 9 -12 22 -11 30 2 7 -3 24 -10 37 -8 14
-9 21 -2 17 6 -4 11 -2 11 3 0 6 -5 11 -11 11 -8 0 -7 6 2 17 12 14 12 16 0 8
-11 -6 -13 -3 -9 13 3 12 1 23 -6 26 -6 2 2 5 18 5 16 1 26 4 23 7 -3 4 -2 15
3 25 6 11 6 19 0 21 -6 2 -12 14 -15 28 -3 14 -12 31 -22 38 -13 9 -14 12 -2
12 10 1 9 5 -5 15 -14 11 -16 15 -5 15 8 0 10 3 4 8 -18 13 -42 47 -26 38 10
-7 10 -3 -2 15 -8 13 -14 36 -13 51 1 14 -2 24 -7 21 -5 -3 -7 5 -6 18 2 13 0
30 -4 36 -13 20 -17 54 -6 48 5 -4 9 1 9 9 0 9 5 15 11 13 6 -1 15 8 20 20 5
15 5 22 -3 20 -5 -1 -12 6 -13 16 -2 10 -11 27 -19 36 -9 10 -13 21 -9 24 3 4
1 7 -5 7 -7 0 -12 7 -12 15 0 8 -5 15 -11 15 -5 0 -8 4 -4 9 3 5 0 15 -7 23
-7 7 -14 20 -16 28 -2 8 -8 18 -14 21 -6 4 -8 14 -5 23 4 9 1 15 -6 13 -6 -1
-13 8 -15 21 -2 12 -7 22 -11 22 -8 0 -9 39 -1 41 3 1 17 2 32 3 21 2 25 -1
16 -11 -8 -10 -7 -12 5 -7 9 3 19 14 22 25 4 11 10 17 15 14 4 -3 13 9 19 26
9 26 13 29 25 20 12 -10 14 -9 9 7 -4 15 7 28 41 51 34 24 46 28 46 17 0 -8
-9 -20 -20 -26 -11 -6 -17 -16 -14 -22 4 -7 3 -8 -4 -4 -7 4 -12 1 -12 -9 0
-9 -4 -13 -10 -10 -5 3 -10 -1 -10 -10 0 -9 -8 -29 -18 -43 -29 -42 -34 -73
-14 -96 9 -11 11 -16 4 -12 -11 7 -11 4 -1 -12 7 -12 18 -20 23 -19 6 1 10 -4
9 -10 -3 -12 10 -18 32 -13 6 1 7 -2 3 -6 -5 -4 10 -24 31 -45 22 -20 37 -40
34 -43 -4 -3 1 -6 10 -6 9 0 16 -6 14 -12 -1 -7 4 -12 11 -11 6 2 12 -6 12
-18 0 -11 5 -17 10 -14 6 3 10 0 10 -7 0 -8 9 -20 19 -28 11 -7 18 -17 15 -22
-3 -4 2 -11 10 -14 9 -3 16 -10 16 -16 0 -5 6 -15 13 -23 12 -11 18 -8 37 15
13 16 27 27 32 24 4 -3 5 2 2 10 -4 9 1 18 10 22 9 3 16 13 16 22 0 8 3 12 7
9 3 -4 11 0 18 9 10 14 12 14 26 -2 8 -11 9 -15 2 -10 -11 6 -15 0 -12 -20 0
-3 -6 -15 -14 -27 -8 -12 -13 -30 -11 -40 1 -12 -2 -17 -10 -14 -9 4 -12 -4
-11 -24 1 -16 -3 -29 -8 -29 -5 0 3 -16 17 -35 15 -19 24 -35 21 -35 -3 0 5
-10 18 -22 14 -13 24 -26 23 -30 0 -4 7 -17 17 -28 9 -11 17 -28 17 -38 0 -14
2 -15 10 -2 6 9 10 10 10 3 0 -19 29 -42 47 -37 10 3 28 21 41 41 13 19 19 32
13 28 -6 -3 -11 -2 -11 3 0 6 7 13 16 16 9 4 14 9 11 13 -4 3 -1 13 6 21 10
13 9 14 -1 8 -11 -7 -11 -4 -1 15 27 52 28 58 16 62 -9 4 -9 6 1 6 7 1 12 14
12 32 0 21 4 28 13 23 10 -6 10 -4 0 7 -7 7 -13 17 -13 22 0 4 6 5 13 1 9 -6
9 -4 -1 8 -10 13 -10 17 0 21 10 4 10 6 1 6 -7 1 -13 8 -13 17 0 8 -16 30 -35
48 -19 18 -32 36 -28 40 3 3 -4 6 -16 6 -14 0 -20 4 -15 12 5 8 2 9 -10 5 -14
-5 -17 -3 -12 8 3 8 2 14 -2 14 -27 -4 -34 1 -22 17 11 12 11 15 -1 12 -8 -2
-18 -7 -22 -13 -5 -6 -7 -4 -4 5 5 19 26 20 53 3 11 -7 24 -10 29 -6 4 5 5 2
1 -4 -5 -9 0 -13 14 -13 12 0 28 -6 36 -14 23 -24 49 -13 52 22 2 21 -1 32
-10 32 -9 0 -9 3 2 10 10 6 11 10 3 10 -7 0 -13 5 -13 11 0 5 6 7 13 3 10 -6
10 -4 0 7 -7 7 -13 24 -13 37 0 16 -4 21 -12 16 -8 -5 -7 0 2 11 8 10 10 16 4
12 -7 -4 -11 3 -11 19 0 13 -9 34 -18 44 -10 12 -13 20 -7 20 7 0 12 -5 12
-12 0 -6 3 -8 7 -5 3 4 -2 16 -11 26 -10 11 -15 25 -11 31 3 6 2 9 -3 8 -5 -2
-18 7 -28 20 -11 13 -29 24 -42 25 -14 1 -21 6 -17 15 2 7 0 10 -5 7 -6 -3
-10 0 -10 7 0 9 -3 9 -10 -2 -8 -13 -10 -12 -10 3 0 10 -4 15 -10 12 -5 -3
-20 1 -32 8 -13 8 -33 14 -45 12 -15 -1 -23 4 -23 14 0 11 -3 10 -15 -5 -11
-14 -14 -15 -9 -3 3 10 0 20 -7 25 -7 4 -10 3 -5 -4 3 -6 1 -14 -5 -18 -8 -4
-9 -3 -5 4 4 7 2 12 -5 12 -19 0 -5 10 21 15 13 3 29 0 37 -6 10 -9 13 -8 13
2 0 9 3 10 8 4 11 -16 45 -19 37 -3 -3 7 1 4 9 -6 9 -11 16 -15 16 -9 0 7 14
8 40 3 39 -7 62 2 40 15 -13 8 -3 25 13 25 7 0 6 -4 -3 -10 -12 -8 -9 -10 12
-10 14 0 29 -6 31 -12 4 -10 8 -9 16 2 9 13 12 13 26 0 8 -9 16 -27 17 -42 1
-15 6 -24 10 -22 8 5 12 -11 9 -29 -1 -5 2 -6 7 -3 5 3 15 -6 22 -19 7 -14 21
-27 32 -31 10 -3 18 -11 18 -17 0 -7 10 -17 23 -22 12 -6 21 -16 19 -23 -1 -8
5 -12 15 -10 11 2 17 -2 15 -10 -2 -9 2 -11 10 -6 19 12 39 14 32 3 -3 -5 1
-9 8 -9 9 0 9 -3 2 -8 -6 -4 -9 -16 -8 -27 2 -11 7 -36 10 -56 4 -22 20 -51
40 -73 19 -20 34 -41 34 -47 0 -5 4 -8 9 -5 4 3 14 -7 21 -22 11 -22 14 -24
17 -9 3 9 9 15 13 12 5 -3 12 7 16 22 4 15 9 33 13 38 3 6 7 19 8 29 2 11 8
25 14 33 7 7 13 37 14 66 2 28 4 52 5 52 2 0 4 10 5 23 1 12 -2 22 -6 22 -5 0
-9 5 -9 11 0 5 5 7 12 3 11 -7 10 4 -7 51 -5 16 -5 17 4 5 13 -19 14 -5 2 19
-6 10 -11 39 -12 64 -2 26 -6 47 -11 47 -4 0 -8 13 -8 29 0 17 -5 33 -10 36
-8 5 -7 12 2 23 10 12 10 14 1 8 -9 -5 -13 1 -13 18 0 16 -6 26 -15 26 -8 0
-15 5 -15 11 0 5 5 7 11 4 6 -4 1 11 -10 34 -12 23 -19 41 -16 41 3 0 1 6 -5
13 -19 23 -59 87 -54 87 2 0 -1 6 -8 14 -7 8 -16 12 -20 9 -4 -2 -5 3 -2 11 3
9 1 16 -5 16 -6 0 -11 10 -11 23 0 18 -2 19 -10 7 -8 -12 -10 -11 -10 8 0 14
-6 22 -17 22 -9 0 -14 2 -11 5 6 6 -52 68 -68 73 -5 2 -12 12 -16 23 -4 10
-13 19 -20 19 -8 0 -22 12 -32 28 -11 18 -16 20 -11 7 4 -16 1 -14 -18 7 -13
15 -27 25 -31 21 -3 -3 -6 1 -6 10 0 15 -17 22 -42 18 -5 0 -8 3 -8 8 0 8 -44
23 -67 22 -5 0 -15 6 -23 13 -8 8 -23 14 -32 15 -10 1 -27 2 -37 3 -11 1 -17
6 -15 10 5 7 -26 12 -63 11 -7 -1 -10 4 -6 10 4 6 0 8 -10 4 -10 -3 -17 -2
-17 4 0 6 -4 8 -8 5 -5 -3 -20 1 -35 9 -23 12 -25 11 -19 -3 5 -15 3 -15 -11
-4 -9 8 -21 11 -27 7 -5 -3 -10 -2 -10 4 0 7 -8 7 -25 1 -16 -6 -25 -6 -25 1
0 6 -7 6 -20 -1 -15 -8 -20 -8 -20 2 0 9 -3 9 -10 -2 -5 -8 -10 -10 -10 -5 0
6 -11 10 -24 10 -18 0 -22 -3 -14 -12 7 -9 3 -10 -21 -3 -17 5 -31 5 -31 1 0
-4 -12 -7 -27 -6 -16 1 -32 -2 -38 -6 -5 -4 -32 -10 -60 -13 -38 -4 -54 -1
-69 12 -14 13 -17 13 -11 2 7 -12 6 -13 -6 -3 -8 6 -23 13 -34 15 -11 1 -23 7
-26 11 -3 4 -16 9 -27 10 -12 1 -22 5 -22 9 0 4 -6 8 -14 8 -8 0 -17 6 -19 13
-4 9 -8 8 -16 -3 -10 -13 -12 -13 -21 0 -8 12 -10 12 -10 -5z m-419 -555 c6 0
8 -4 5 -9 -3 -5 10 -23 29 -40 20 -17 30 -31 23 -32 -10 0 -10 -2 0 -6 6 -2
10 -9 7 -14 -4 -5 1 -6 10 -3 10 4 15 2 13 -7 -2 -8 2 -13 8 -12 7 1 9 -8 6
-25 -3 -15 -7 -21 -10 -14 -3 10 -7 10 -18 2 -10 -10 -12 -8 -9 9 2 14 -1 21
-11 21 -8 0 -14 10 -14 23 0 18 -2 19 -10 7 -8 -12 -10 -11 -10 6 0 12 -13 38
-30 59 -34 43 -36 50 -14 41 9 -3 20 -6 25 -6z m269 -60 c0 -6 -8 -14 -17 -17
-10 -4 -21 -12 -25 -19 -5 -7 -17 -10 -28 -7 -12 3 -20 1 -18 -5 2 -5 0 -10
-4 -11 -26 -3 -28 1 -8 19 13 11 28 20 34 20 6 0 4 5 -4 11 -12 8 -10 9 7 4
12 -3 24 -1 28 5 8 13 35 13 35 0z m-980 -155 c-5 -14 -6 -25 -2 -25 4 0 1 -4
-6 -9 -8 -5 -15 -20 -15 -35 -1 -14 -2 -26 -3 -26 0 0 -9 10 -20 22 -17 19
-17 21 -1 15 17 -6 19 -3 21 46 1 10 8 22 16 27 21 13 21 13 10 -15z m1075
-189 c13 -14 25 -22 28 -19 3 2 4 -3 3 -14 -2 -10 -7 -16 -12 -13 -22 11 -44
36 -44 48 0 7 -5 10 -12 6 -7 -4 -8 -3 -4 4 10 17 16 15 41 -12z"/>
</g>
</svg>
