<?xml version="1.0" encoding="UTF-8"?>
<svg width="131px" height="26px" viewBox="0 0 131 26" version="1.1" xmlns="http://www.w3.org/2000/svg" xmlns:xlink="http://www.w3.org/1999/xlink">
    <!-- Generator: Sketch 45.2 (43514) - http://www.bohemiancoding.com/sketch -->
    <title>palmreality logo</title>
    <desc>Created with Sketch.</desc>
    <defs></defs>
    <g id="Page-1" stroke="none" stroke-width="1" fill="none" fill-rule="evenodd">
        <g id="Desktop" transform="translate(-775.000000, -53.000000)">
            <g id="top" transform="translate(120.000000, 25.000000)">
                <g id="header">
                    <g id="palmreality-logo" transform="translate(655.000000, 28.000000)">
                        <g id="Group">
                            <path d="M2.95756091,7.03590426 L6.54826536,7.03590426 L6.31408898,8.69547872 L6.36612818,8.69547872 C6.53959303,8.47074356 6.77376706,8.24169 7.06865731,8.00831117 C7.36354755,7.77493234 7.68878927,7.56316584 8.04439221,7.37300532 C8.39999516,7.18284479 8.78594866,7.02726124 9.2022643,6.90625 C9.61857994,6.78523876 10.0522356,6.72473404 10.5032442,6.72473404 C11.4399544,6.72473404 12.2682366,6.88463936 12.9881157,7.20445479 C13.7079949,7.52427022 14.3021031,7.97373381 14.7704582,8.55285904 C15.2388133,9.13198428 15.564055,9.81914496 15.7461931,10.6143617 C15.9283312,11.4095784 15.9500139,12.282575 15.8112421,13.2333777 C15.6898167,14.115031 15.4382964,14.9577752 15.0566737,15.7616356 C14.6750511,16.565496 14.1936933,17.2785873 13.6125861,17.9009309 C13.0314788,18.5232744 12.3593126,19.0202774 11.5960673,19.3919548 C10.8328219,19.7636322 10.0002031,19.9494681 9.09818591,19.9494681 C8.28290111,19.9494681 7.53701345,19.8241369 6.86050053,19.5734707 C6.18398761,19.3228046 5.67227398,18.8949498 5.32534428,18.2898936 L5.27330508,18.2898936 L4.23252119,25.5505319 L0.329581568,25.5505319 L2.95756091,7.03590426 Z M5.66359905,13.3371011 C5.52482717,14.2879037 5.68527975,15.0571779 6.1449616,15.6449468 C6.60464345,16.2327157 7.32884834,16.5265957 8.31759799,16.5265957 C9.30634763,16.5265957 10.1172836,16.2327157 10.7504303,15.6449468 C11.3835771,15.0571779 11.7695306,14.2879037 11.9083024,13.3371011 C12.0470743,12.3862984 11.8822852,11.6170242 11.4139301,11.0292553 C10.945575,10.4414864 10.2170335,10.1476064 9.2282839,10.1476064 C8.23953425,10.1476064 7.4329348,10.4414864 6.80846133,11.0292553 C6.18398787,11.6170242 5.80237093,12.3862984 5.66359905,13.3371011 Z M25.3604343,18.056516 L25.3083951,18.056516 C24.7880006,18.7307215 24.1461903,19.2147592 23.3829449,19.5086436 C22.6196996,19.8025281 21.8391195,19.9494681 21.0411811,19.9494681 C20.4514007,19.9494681 19.8963215,19.8673545 19.3759269,19.703125 C18.8555324,19.5388955 18.4088671,19.2925548 18.0359176,18.9640957 C17.6629682,18.6356367 17.3897652,18.2293907 17.2163003,17.7453457 C17.0428355,17.2613008 16.9994699,16.6994713 17.0862023,16.0598404 C17.2423207,14.9707392 17.6542935,14.127995 18.3221332,13.5315824 C18.9899729,12.9351699 19.7792261,12.4943498 20.6899166,12.209109 C21.600607,11.9238683 22.5546494,11.7553194 23.5520723,11.7034574 C24.5494952,11.6515955 25.4558354,11.6256649 26.2711202,11.6256649 C26.3578527,10.9341721 26.1843904,10.3853079 25.7507283,9.97905585 C25.3170662,9.57280382 24.761987,9.36968085 24.085474,9.36968085 C23.4436541,9.36968085 22.8408728,9.50365558 22.277112,9.77160904 C21.7133513,10.0395625 21.188628,10.4069126 20.7029264,10.8736702 L18.9335937,8.74734043 C19.7488785,8.07313493 20.6638919,7.56748839 21.6786613,7.23038564 C22.6934307,6.89328289 23.7211945,6.72473404 24.7619836,6.72473404 C25.9068516,6.72473404 26.8305381,6.8673523 27.5330707,7.15259309 C28.2356034,7.43783387 28.7689998,7.85704511 29.133276,8.41023936 C29.4975521,8.96343362 29.7100434,9.64195077 29.7707561,10.4458112 C29.8314688,11.2496716 29.7837667,12.1788511 29.6276483,13.2333777 L28.742982,19.6382979 L25.1522775,19.6382979 L25.3604343,18.056516 Z M24.9441208,14.1150266 C24.6492305,14.1150266 24.2806232,14.1279919 23.8382879,14.1539229 C23.3959525,14.1798539 22.9622969,14.2533239 22.537308,14.3743351 C22.1123191,14.4953463 21.7393753,14.6768605 21.4184653,14.918883 C21.0975553,15.1609055 20.9110834,15.4980032 20.859044,15.9301862 C20.824351,16.1722087 20.8503703,16.3753316 20.9371028,16.5395612 C21.0238352,16.7037907 21.1452588,16.846409 21.3013771,16.9674202 C21.4574955,17.0884315 21.6439674,17.1748668 21.8607985,17.2267287 C22.0776295,17.2785907 22.2901208,17.3045213 22.4982786,17.3045213 C22.8799013,17.3045213 23.2571817,17.2526601 23.6301311,17.1489362 C24.0030805,17.0452122 24.3413319,16.8982722 24.6448954,16.7081117 C24.9484589,16.5179512 25.2043157,16.2759323 25.4124735,15.9820479 C25.6206313,15.6881634 25.750728,15.3424222 25.8027675,14.9448138 L25.9068459,14.1150266 L24.9441208,14.1150266 Z M33.9989407,0.0345744681 L37.9018803,0.0345744681 L35.143803,19.6382979 L31.2408633,19.6382979 L33.9989407,0.0345744681 Z M39.7232521,7.03590426 L43.4700742,7.03590426 L43.2358978,8.74734043 L43.287937,8.74734043 C43.4440553,8.50531794 43.65221,8.26329908 43.9124073,8.0212766 C44.1726046,7.77925411 44.4674904,7.56316584 44.7970736,7.37300532 C45.1266568,7.18284479 45.4996007,7.02726124 45.9159163,6.90625 C46.332232,6.78523876 46.7745607,6.72473404 47.2429158,6.72473404 C48.1275865,6.72473404 48.8908204,6.90624818 49.5326404,7.26928191 C50.1744603,7.63231564 50.6081159,8.20278866 50.8336202,8.98071809 C51.4060542,8.16821402 52.0348549,7.58909747 52.720041,7.24335106 C53.4052272,6.89760465 54.2161632,6.72473404 55.1528734,6.72473404 C56.0028512,6.72473404 56.6967002,6.8673523 57.2344412,7.15259309 C57.7721822,7.43783387 58.1798185,7.82679275 58.4573623,8.31948138 C58.734906,8.81217002 58.8996952,9.39128657 58.9517346,10.0568484 C59.0037741,10.7224102 58.9777548,11.4355015 58.8736758,12.1961436 L57.8328919,19.6382979 L53.9299523,19.6382979 L54.9447166,12.299867 C55.0314491,11.7120981 54.9794104,11.2064516 54.788599,10.7829122 C54.5977877,10.3593729 54.1814783,10.1476064 53.5396584,10.1476064 C53.0886498,10.1476064 52.7026963,10.2210764 52.3817863,10.3680186 C52.0608763,10.5149608 51.7876733,10.7180838 51.562169,10.9773936 C51.3366647,11.2367034 51.1632024,11.539227 51.041777,11.8849734 C50.9203516,12.2307198 50.8336205,12.5937481 50.781581,12.9740691 L49.8448755,19.6382979 L45.9419359,19.6382979 L46.8786414,12.9740691 C46.9133344,12.749334 46.9436903,12.472741 46.96971,12.1442819 C46.9957297,11.8158228 46.9783835,11.5046557 46.9176708,11.2107713 C46.8569581,10.9168868 46.7225249,10.6662244 46.5143671,10.4587766 C46.3062092,10.2513287 45.976631,10.1476064 45.5256224,10.1476064 C45.0225743,10.1476064 44.6019283,10.2383635 44.2636719,10.4198803 C43.9254154,10.6013972 43.6522124,10.843416 43.4440546,11.1459441 C43.2358967,11.4484723 43.0797807,11.7898917 42.9757018,12.1702128 C42.8716229,12.5505338 42.7935649,12.9481362 42.7415254,13.3630319 L41.8568591,19.6382979 L37.9539195,19.6382979 L39.7232521,7.03590426 Z" id="palm" fill="#4F4F4F"></path>
                            <path d="M62.2305174,11.2570027 C62.2999219,10.7209522 62.3649877,10.176264 62.4257167,9.62292163 C62.4864456,9.06957926 62.5688622,8.35197413 62.672969,7.47008472 L64.3646957,7.47008472 L64.0523769,9.72667281 L64.1044301,9.72667281 C64.2779414,9.39812577 64.4948272,9.08255243 64.7550942,8.77994332 C65.0153611,8.47733421 65.323339,8.20499009 65.6790372,7.9629028 C66.0347354,7.72081552 66.4338054,7.526284 66.8762592,7.37930244 C67.318713,7.23232087 67.808875,7.15883119 68.34676,7.15883119 C68.8325917,7.15883119 69.257688,7.21070626 69.6220617,7.31445795 L69.0234507,9.00041457 C68.8152372,8.91395482 68.4942461,8.8707256 68.0604678,8.8707256 C67.4011249,8.8707256 66.8198708,8.99609035 66.316688,9.24682362 C65.8135053,9.49755688 65.3797335,9.81745314 65.0153598,10.206522 C64.6509861,10.5955909 64.360359,11.0149143 64.1434699,11.464505 C63.9265808,11.9140957 63.7921115,12.3463879 63.7400582,12.7613947 L62.7770753,19.6089724 L61.059322,19.6089724 L62.2305174,11.2570027 Z M79.9806343,12.605768 C80.1367945,11.4472074 79.9199086,10.5091332 79.3299702,9.79151729 C78.7400318,9.0739014 77.8204357,8.71509884 76.5711544,8.71509884 C76.0159182,8.71509884 75.4650281,8.8231719 74.9184675,9.03932126 C74.3719069,9.25547063 73.8774072,9.54510643 73.4349534,9.90823737 C72.9924996,10.2713683 72.6194559,10.6863689 72.3158111,11.1532515 C72.0121663,11.6201341 71.8256445,12.1043014 71.75624,12.605768 L79.9806343,12.605768 Z M71.4959743,14.0064088 C71.4612721,14.6116271 71.5306755,15.1822528 71.7041868,15.7183033 C71.8776981,16.2543537 72.1336235,16.7169064 72.4719705,17.1059752 C72.8103175,17.4950441 73.2267384,17.8019716 73.7212456,18.0267669 C74.2157528,18.2515623 74.7666429,18.3639583 75.3739324,18.3639583 C76.2935423,18.3639583 77.1177086,18.1521351 77.846456,17.7284823 C78.5752035,17.3048295 79.1477821,16.8163393 79.5642093,16.2629969 L80.7354047,17.3523843 C79.8851993,18.2688576 78.9916295,18.9259418 78.0546685,19.3236566 C77.1177075,19.7213715 76.1460588,19.9202259 75.1396933,19.9202259 C74.2374346,19.9202259 73.4262814,19.7602778 72.7062096,19.4403767 C71.9861377,19.1204757 71.383195,18.6752146 70.8973633,18.1045803 C70.4115317,17.533946 70.0645143,16.8595701 69.8563008,16.0814324 C69.6480872,15.3032947 69.6133855,14.4560019 69.7521945,13.5395285 C69.8736524,12.6230552 70.1469286,11.7757624 70.5720313,10.9976247 C70.997134,10.219487 71.5263355,9.5451111 72.1596517,8.97447678 C72.7929679,8.40384245 73.5043536,7.95858144 74.29383,7.63868038 C75.0833064,7.31877932 75.9118104,7.15883119 76.7793669,7.15883119 C77.6989767,7.15883119 78.5014545,7.32310224 79.1868241,7.65164927 C79.8721937,7.98019631 80.4230838,8.41681148 80.8395109,8.96150788 C81.255938,9.50620428 81.5465651,10.1459968 81.7114008,10.8809046 C81.8762365,11.6158125 81.8979251,12.3982615 81.7764672,13.228275 L81.6463344,14.0064088 L71.4959743,14.0064088 Z M91.7706679,13.5654663 C91.3368897,13.5654663 90.794675,13.587081 90.1440076,13.6303108 C89.4933403,13.6735407 88.8556958,13.7772908 88.2310552,13.9415644 C87.6064145,14.1058379 87.0555244,14.3608903 86.5783683,14.7067293 C86.1012123,15.0525683 85.8192606,15.5280897 85.732505,16.133308 C85.6804516,16.5310228 85.7151533,16.8725337 85.8366113,17.1578508 C85.9580692,17.443168 86.144591,17.6766058 86.3961824,17.8581713 C86.6477738,18.0397367 86.9384008,18.1694244 87.2680723,18.2472382 C87.5977438,18.325052 87.9360857,18.3639583 88.2831083,18.3639583 C88.907749,18.3639583 89.4673145,18.2602081 89.9618217,18.0527047 C90.4563289,17.8452013 90.8770875,17.5642114 91.2241101,17.2097264 C91.5711327,16.8552415 91.8530843,16.4402409 92.0699734,15.9647123 C92.2868625,15.4891837 92.4386826,14.9834018 92.5254383,14.4473513 L92.6555711,13.5654663 L91.7706679,13.5654663 Z M92.8377571,12.1648255 L92.8898102,11.8535719 C93.1674283,9.76124607 92.2738585,8.71509884 90.2090741,8.71509884 C88.7862814,8.71509884 87.4762908,9.19062031 86.2790628,10.1416775 L85.4201862,8.92260119 C86.062178,8.35196686 86.8342917,7.9153517 87.7365504,7.61274258 C88.6388092,7.31013347 89.6625105,7.15883119 90.807685,7.15883119 C91.3976234,7.15883119 91.9528513,7.24528964 92.4733852,7.41820913 C92.993919,7.59112862 93.4320285,7.85482689 93.7877267,8.20931185 C94.1434248,8.56379681 94.4036878,9.00905782 94.5685236,9.54510825 C94.7333593,10.0811587 94.7637233,10.7209512 94.6596166,11.464505 L93.9048462,16.885504 C93.8354417,17.3523866 93.7877268,17.8408769 93.7617001,18.3509894 C93.7356734,18.8611019 93.7226602,19.2804253 93.7226602,19.6089724 L92.0569601,19.6089724 C92.039609,19.3150092 92.0439467,18.995113 92.0699734,18.649274 C92.0960001,18.303435 92.1350396,17.9662471 92.1870929,17.6377 L92.1350398,17.6377 C91.5277503,18.4504216 90.8510664,19.0340162 90.1049678,19.3885011 C89.3588692,19.7429861 88.4913258,19.9202259 87.5023114,19.9202259 C86.9644264,19.9202259 86.4525757,19.8467362 85.9667441,19.6997547 C85.4809124,19.5527731 85.0688293,19.3279811 84.7304823,19.025372 C84.3921352,18.7227629 84.1362099,18.3509916 83.9626986,17.9100469 C83.7891873,17.4691022 83.7458102,16.9546744 83.8325658,16.3667481 C83.9713748,15.381107 84.3357431,14.6073039 84.9256815,14.0453155 C85.5156199,13.4833272 86.2139924,13.0640037 87.0208199,12.7873325 C87.8276475,12.5106613 88.6735023,12.3377444 89.55841,12.2685766 C90.4433176,12.1994088 91.250133,12.1648255 91.9788804,12.1648255 L92.8377571,12.1648255 Z M99.6046638,19.6089724 L97.8869105,19.6089724 L100.645726,0 L102.36348,0 L99.6046638,19.6089724 Z M108.609855,2.80128177 C108.557802,3.1644127 108.384293,3.46269435 108.089324,3.69613567 C107.794355,3.92957698 107.490714,4.04629589 107.178394,4.04629589 C106.866074,4.04629589 106.597135,3.92957698 106.37157,3.69613567 C106.146006,3.46269435 106.059251,3.1644127 106.111305,2.80128177 C106.163358,2.43815083 106.336867,2.13986918 106.631836,1.90642787 C106.926805,1.67298656 107.230446,1.55626765 107.542766,1.55626765 C107.855086,1.55626765 108.124025,1.67298656 108.349589,1.90642787 C108.575154,2.13986918 108.661908,2.43815083 108.609855,2.80128177 Z M105.851039,19.6089724 L104.133286,19.6089724 L105.851039,7.47008472 L107.568792,7.47008472 L105.851039,19.6089724 Z M117.771206,9.02635236 L114.257619,9.02635236 L113.26861,16.1851836 C113.199206,16.6347742 113.186192,17.0022226 113.22957,17.2875398 C113.272948,17.572857 113.359702,17.793326 113.489836,17.9489536 C113.619969,18.1045811 113.793478,18.2126542 114.010367,18.273176 C114.227256,18.3336978 114.465831,18.3639583 114.726098,18.3639583 C115.021067,18.3639583 115.329045,18.320729 115.650041,18.2342693 C115.971037,18.1478095 116.270339,18.0354136 116.547957,17.897078 L116.417824,19.4792834 C115.723779,19.7732465 114.925639,19.9202259 114.02338,19.9202259 C113.693709,19.9202259 113.359705,19.8769967 113.021358,19.7905369 C112.683011,19.7040772 112.383708,19.5398061 112.123441,19.2977188 C111.863174,19.0556316 111.663639,18.7270895 111.52483,18.3120827 C111.386021,17.8970759 111.36867,17.3523877 111.472777,16.6780016 L112.539866,9.02635236 L109.963236,9.02635236 L110.197475,7.47008472 L112.774105,7.47008472 L113.242583,4.04629589 L114.960337,4.04629589 L114.491859,7.47008472 L118.005445,7.47008472 L117.771206,9.02635236 Z M123.444997,17.5080111 L128.598256,7.47008472 L130.680382,7.47008472 L122.429961,22.7733833 C121.926778,23.7071485 121.354199,24.4506912 120.712207,25.0040336 C120.070216,25.5573759 119.220023,25.834043 118.161604,25.834043 C117.901337,25.834043 117.636736,25.8253971 117.367794,25.8081052 C117.098851,25.7908132 116.842926,25.7389382 116.60001,25.6524784 L117.016435,23.9924596 C117.207298,24.0962113 117.406833,24.169701 117.615046,24.2129308 C117.82326,24.2561607 118.048821,24.2777753 118.291737,24.2777753 C118.899026,24.2777753 119.402202,24.0875667 119.801278,23.7071439 C120.200354,23.326721 120.582073,22.7906786 120.946447,22.0990006 L122.143668,19.7645991 L118.890348,7.47008472 L121.050553,7.47008472 L123.444997,17.5080111 Z" id="reality" fill="#9D9D9D"></path>
                        </g>
                    </g>
                </g>
            </g>
        </g>
    </g>
</svg>